# xmcd CD database file
#
# Track frame offsets:
#	150
#	18757
#	40189
#	57360
#	70807
#	90878
#	115556
#	131850
#	153075
#	174173
#	192507
#
# Disc length: 2940 seconds
#
# Revision: 0
# Processed by: cddbd v1.5.2PL0 Copyright (c) Steve Scherf et al.
# Submitted via: CDex 1.70beta2
#
DISCID=7f0b7a0b
DTITLE=BLUEDAYS - BLUEDAYS - TARTARUGA
DYEAR=2009
DGENRE=Blues
TTITLE0=La mula
TTITLE1=1500 Blues
TTITLE2=Angelina
TTITLE3=Comunicando
TTITLE4=Para toda esa gente
TTITLE5=Contigo a mi lao
TTITLE6=Rollin' and tumblin'
TTITLE7=The Killing Floor
TTITLE8=Tartaruga
TTITLE9=En la flor de la vida
TTITLE10=Too hot to handle
EXTD=YEAR: 2009
EXTT0=
EXTT1=
EXTT2=
EXTT3=
EXTT4=
EXTT5=
EXTT6=
EXTT7=
EXTT8=
EXTT9=
EXTT10=
PLAYORDER=
